<svg width="32" height="32" viewBox="0 0 32 32" fill="none" xmlns="http://www.w3.org/2000/svg">
<g clip-path="url(#clip0_1125_37052)">
<rect width="32" height="32" rx="6.4" fill="#434FEF"/>
<path fill-rule="evenodd" clip-rule="evenodd" d="M21.2941 7.43489L20.1108 8.7005C19.9775 8.58699 18.1824 7.06535 14.8349 7.18129C12.5113 7.26099 10.6376 7.87689 9.31623 9.43234C7.99488 10.9902 7.15207 13.0746 6.66877 15.8377C6.19499 18.5887 6.34736 20.7504 7.12588 22.3203C7.90203 23.8927 9.45432 24.825 11.7804 24.825C13.835 24.825 15.6539 24.1584 17.23 23.1198C17.285 23.084 17.3359 23.0474 17.3865 23.011C17.4213 22.9859 17.456 22.9608 17.4919 22.9362L17.2086 24.5738H22.1155L25.0724 7.43489H21.2941ZM13.5184 21.3132C12.4898 21.3132 11.778 20.9509 11.3066 20.2263C10.8328 19.5017 10.7899 18.0429 11.1756 15.8498C11.5518 13.676 12.228 12.3476 12.9517 11.6182C13.6755 10.8888 14.3159 10.5168 15.3087 10.4009C17.8229 10.1062 19.268 11.8331 19.0371 13.3572L18.18 18.294C17.5919 20.8035 14.5469 21.3132 13.516 21.3132H13.5184Z" fill="white"/>
</g>
<defs>
<clipPath id="clip0_1125_37052">
<rect width="32" height="32" rx="6.4" fill="white"/>
</clipPath>
</defs>
</svg>
