<svg width="48" height="48" viewBox="0 0 48 48" fill="none" xmlns="http://www.w3.org/2000/svg"><rect x="0.6" y="0.6" width="46.8" height="46.8" rx="11.4" fill="white"/><rect x="0.6" y="0.6" width="46.8" height="46.8" rx="11.4" stroke="#C9C9D4" stroke-width="1.2"/><path fill-rule="evenodd" clip-rule="evenodd" d="M31.9409 11.1523L30.166 13.0507C29.966 12.8804 27.2733 10.598 22.2522 10.7719C18.7667 10.8915 15.9561 11.8153 13.9741 14.1485C11.9921 16.4853 10.7279 19.6119 10.0029 23.7565C9.29224 27.883 9.52079 31.1256 10.6886 33.4805C11.8528 35.839 14.1812 37.2375 17.6703 37.2375C20.7523 37.2375 23.4807 36.2375 25.8448 34.6797C25.9273 34.626 26.0036 34.5711 26.0795 34.5164C26.1317 34.4788 26.1838 34.4412 26.2376 34.4043L25.8127 36.8607H33.1729L37.6084 11.1523H31.9409ZM20.2773 31.9697C18.7345 31.9697 17.6667 31.4263 16.9596 30.3394C16.249 29.2525 16.1847 27.0642 16.7632 23.7746C17.3275 20.514 18.3417 18.5214 19.4273 17.4272C20.513 16.3331 21.4736 15.7752 22.9628 15.6013C26.734 15.1593 28.9018 17.7497 28.5554 20.0358L27.2697 27.441C26.3876 31.2053 21.8201 31.9697 20.2737 31.9697H20.2773Z" fill="#434FEF"/></svg>