<svg xmlns="http://www.w3.org/2000/svg" viewBox="0 0 290.77 110.45"><g id="Layer_2" data-name="Layer 2"><g id="Layer_1-2" data-name="Layer 1"><path d="M90.86,0V84.23h-17V0Z"/><path d="M118.22,84.23,97.9,26.11h18.17l14.3,45.18,14.19-45.18h18.27L142.51,84.23Z"/><path d="M174.75,95.81a24.67,24.67,0,0,0,6.93,1.13c7.26,0,10.1-5.1,12.71-12.14L166.92,26.11h18.62l15.78,37.46,12.94-37.46H232L209.49,86.27c-5.45,15-11.69,24.18-23.5,24.18a33.44,33.44,0,0,1-11.24-2Z"/><path d="M263.41,86.73c-15.66,0-27-9.2-26.9-21.91h14.42c0,5.79,5.33,9.87,12.71,9.87,6.24,0,10.78-3,10.78-6.81,0-4.88-6.58-6.24-13.62-6.92-12.94-1.59-23.72-3.63-23.72-17.82,0-11.35,10.78-19.53,25-19.53,15.55,0,26.79,8.4,26.79,20.09h-15c0-4.76-5.11-8.05-11.92-8.05-5.22,0-9.42,2.72-9.54,6.58s5.11,5,11.69,6c11.81,1.59,26.68,4,26.68,17.6C290.77,78,279.65,86.73,263.41,86.73Z"/><path d="M64.12,84.22V26.13h-17v7.55c-.41-.54-.82-1.1-1.27-1.62s-.7-.77-1.08-1.13a20.93,20.93,0,0,0-3-2.63l-.28-.2a23,23,0,0,0-11.93-4.16h0a0,0,0,0,0-.06,0h0a3.47,3.47,0,0,0-.47,0,8.85,8.85,0,0,0-1.15-.05A26,26,0,0,0,6.56,34.14s-.09.11-.14.16C2.35,39.68,0,46.89,0,55.19c0,.54,0,1.08.05,1.62s0,1.09.09,1.61A33,33,0,0,0,6.53,76.23a27,27,0,0,0,2,2.29,26,26,0,0,0,18.38,8c.32,0,.61,0,.93,0s.58,0,.86,0,.63,0,.92,0h0a23.63,23.63,0,0,0,9-2.42,24.16,24.16,0,0,0,9-7.84v8Zm-32.22-13H29.76a17.15,17.15,0,1,1,13-28.94A16.84,16.84,0,0,1,47.39,52a17.16,17.16,0,0,1,.13,2.16V71.29l-14.69,0Z"/><ellipse cx="30.25" cy="54.01" rx="8.16" ry="8.1"/></g></g></svg>